<?xml version="1.0" encoding="utf-8"?>
<!-- Generator: Adobe Illustrator 23.0.1, SVG Export Plug-In . SVG Version: 6.00 Build 0)  -->
<svg version="1.1" id="Lager_1" xmlns="http://www.w3.org/2000/svg" xmlns:xlink="http://www.w3.org/1999/xlink" x="0px" y="0px"
	 viewBox="0 0 264.89 312.89" style="enable-background:new 0 0 264.89 312.89;" xml:space="preserve">
<style type="text/css">
	.st0{fill:#FFFFFF;}
</style>
<g>
	<path class="st0" d="M19.95,36.05c-0.53,10.36-0.76,20.99-0.87,31.7c-0.09,5.33-0.05,10.75-0.09,16.12l0.11,16.24l0.96,65.07
		c0.31,21.65,0.87,43.31,1.28,64.88l0.33,16.17l0.43,16.16c0.28,10.76,0.55,21.51,0.91,32.24l-14.15-8.94l0,0
		c5.4-2.7,10.96-5.6,16.42-8.5c5.47-2.91,10.95-5.83,16.38-8.82c10.88-5.97,21.67-12.12,32.34-18.44
		c21.33-12.65,42.35-25.8,62.55-39.99c10.09-7.09,20-14.41,29.59-22.04c9.59-7.64,18.94-15.5,27.75-23.82
		c8.82-8.3,17.13-17.03,24.46-26.27c7.31-9.21,13.68-19.02,17.73-29.18c2.01-5.07,3.43-10.2,3.98-15.24
		c0.56-5.04,0.29-9.97-0.9-14.7c-2.31-9.48-8.42-18.11-16.74-25.58c-8.25-7.48-18-13.38-28.58-17.85
		c-10.59-4.46-21.99-7.46-33.69-9.35c-11.7-1.93-23.72-2.76-35.8-2.81c-12.09-0.03-24.25,0.63-36.4,1.93
		c-12.14,1.3-24.29,3.09-36.34,5.44c-6.03,1.17-12.03,2.46-18,3.89c-2.98,0.71-5.97,1.43-8.93,2.2l-4.42,1.18l-2.19,0.61l-1.08,0.31
		l-0.53,0.16c0.05-0.02-0.29,0.09,0.07-0.03c0.43-0.16,0.88-0.37,1.3-0.64C18.72,37.61,19.47,36.84,19.95,36.05z M6.97,26.7
		c0.67-0.85,1.6-1.68,2.64-2.28c0.52-0.3,1.06-0.55,1.58-0.73l0.35-0.12l0.59-0.2l1.16-0.4l2.3-0.77l4.59-1.47
		c3.06-0.95,6.12-1.88,9.2-2.74c6.15-1.72,12.34-3.31,18.56-4.76c12.44-2.89,25.01-5.34,37.74-7.06c25.42-3.44,51.48-4.56,77.64-0.9
		c13.05,1.9,26.11,5.06,38.7,10.13c12.58,5.03,24.65,12.13,35.06,21.41c5.13,4.58,10.16,9.85,14.29,15.95
		c2.08,3.04,3.96,6.29,5.57,9.71c1.6,3.43,2.88,7.04,3.83,10.75c1.9,7.42,2.33,15.19,1.52,22.59c-0.78,7.43-2.76,14.46-5.33,21.04
		c-5.21,13.16-12.71,24.56-20.9,34.97c-8.25,10.38-17.29,19.81-26.71,28.67c-18.85,17.72-39.25,33.16-60.17,47.61
		c-10.47,7.21-21.1,14.14-31.84,20.85c-10.75,6.7-21.6,13.22-32.61,19.44c-11,6.25-22.09,12.3-33.28,18.18
		c-5.6,2.93-11.21,5.84-16.87,8.66c-5.69,2.83-11.3,5.57-17.18,8.32l0,0l-14.69,6.52l0.55-15.46c0.4-11.21,0.69-22.4,1-33.57
		l0.47-16.75l0.38-16.73c0.47-22.31,1.09-44.52,1.45-66.74l1.12-66.55L7.8,77.59C7.79,72,7.84,66.45,7.76,60.81
		C7.67,49.58,7.47,38.28,6.97,26.7z"/>
</g>
<g>
	<path class="st0" d="M71.28,206.4c-1.23-3.42-1.89-6.73-2.4-10.01c-0.49-3.28-0.75-6.51-0.83-9.71c-0.1-3.21,0.01-6.38,0.2-9.54
		l0.44-9.49c0.51-12.65,0.7-25.29,0.94-37.81c0.2-12.52,0.55-24.96,0.57-37.2c-0.01-6.11-0.06-12.2-0.45-18.11
		c-0.12-2.96,0.23-5.95,1.08-9.1c0.47-1.6,0.97-3.18,1.73-4.94c0.76-1.74,1.51-3.53,2.84-5.7l0.94-0.34
		c1.14,0.44,2.18,0.95,3.11,1.54c0.94,0.58,1.85,1.21,2.6,1.88c0.76,0.67,1.49,1.37,2.14,2.1c0.69,0.72,1.3,1.49,1.82,2.25
		c1.03,1.53,2,3.15,2.65,4.78c0.65,1.63,1.21,3.3,1.54,4.98c1.24,6.74,1.89,13.39,2.28,20.02c0.4,6.63,0.44,13.21,0.21,19.74
		c-0.21,6.54-0.69,13.04-1.4,19.5c-1.37,12.92-3.61,25.68-6,38.35l-1.86,9.49c-0.61,3.16-1.34,6.31-2.3,9.42
		c-0.95,3.11-2.1,6.19-3.53,9.22c-1.44,3.03-3.06,6.02-5.33,8.89L71.28,206.4z"/>
</g>
<g>
	<path class="st0" d="M119.21,188.84c-1.27-3.06-2.02-6.01-2.57-8.92c-0.54-2.91-0.86-5.78-1-8.62c-0.14-2.84-0.07-5.65,0.06-8.45
		l0.31-8.4c0.34-11.19,0.4-22.36,0.54-33.41c0.11-11.05,0.4-22.02,0.47-32.78c0.01-5.37,0-10.73-0.3-15.91
		c-0.07-2.6,0.33-5.22,1.26-8.01c0.52-1.43,1.04-2.82,1.86-4.41c0.43-0.8,0.77-1.56,1.3-2.43l0.76-1.31
		c0.32-0.47,0.57-0.92,0.94-1.43l0.94-0.34c0.59,0.16,1.06,0.38,1.59,0.58c0.49,0.22,0.94,0.46,1.41,0.7
		c0.49,0.24,0.91,0.5,1.34,0.77c0.45,0.27,0.82,0.56,1.19,0.84c1.47,1.15,2.8,2.47,3.84,3.81c1,1.35,1.92,2.79,2.55,4.23
		c0.63,1.44,1.15,2.94,1.47,4.43c1.14,6.01,1.76,11.93,2.12,17.82c0.37,5.89,0.42,11.73,0.21,17.53c-0.19,5.8-0.64,11.57-1.3,17.29
		c-1.28,11.45-3.38,22.74-5.6,33.95l-1.73,8.39c-0.57,2.8-1.23,5.58-2.14,8.32c-0.91,2.74-2.02,5.46-3.39,8.12
		c-1.37,2.66-2.98,5.29-5.16,7.79L119.21,188.84z"/>
</g>
<g>
	<path class="st0" d="M164.11,166.93c-1.34-2.6-2.17-5.1-2.78-7.56c-0.6-2.46-0.99-4.87-1.2-7.26c-0.21-2.39-0.2-4.74-0.12-7.08
		l0.14-7.03c0.13-9.36,0.01-18.7,0.04-27.92c-0.01-9.22,0.22-18.34,0.34-27.27c0.04-4.45,0.08-8.89-0.1-13.16
		c-0.01-2.14,0.46-4.31,1.49-6.65c0.57-1.2,1.15-2.37,2.02-3.74c0.46-0.69,0.83-1.34,1.4-2.1l0.82-1.15
		c0.33-0.41,0.61-0.81,0.99-1.27l0.94-0.34c0.57,0.11,1.02,0.27,1.54,0.42c0.47,0.16,0.9,0.35,1.36,0.53
		c0.47,0.18,0.88,0.39,1.29,0.61c0.43,0.21,0.78,0.45,1.15,0.68c1.41,0.93,2.68,2.02,3.68,3.14c0.96,1.12,1.83,2.34,2.43,3.55
		c0.6,1.22,1.08,2.49,1.37,3.75c1.02,5.1,1.59,10.09,1.92,15.07c0.35,4.97,0.4,9.9,0.21,14.77c-0.16,4.88-0.57,9.73-1.17,14.53
		c-1.17,9.62-3.09,19.07-5.1,28.46l-1.56,7.02c-0.51,2.34-1.12,4.67-1.96,6.95c-0.84,2.29-1.89,4.54-3.19,6.75
		c-1.3,2.21-2.84,4.38-4.95,6.43L164.11,166.93z"/>
</g>
</svg>
